<svg xmlns="http://www.w3.org/2000/svg" width="240" height="240" fill="none" viewBox="0 0 240 240">
  <g class="Property 1=Dark">
    <path fill="#275C91" d="M43.854 100.408v8.262H15.97v-8.262h27.884ZM15.97 48.221v60.449H6V48.221h9.97Zm23.873 25.242v8.138H15.97v-8.138h23.873Zm3.813-25.242v8.303H15.97v-8.303h27.686Zm24.489 53.308c1.563 0 2.966-.319 4.21-.955a8.086 8.086 0 0 0 3.06-2.74c.794-1.163 1.23-2.505 1.31-4.027h9.017c-.053 2.906-.874 5.549-2.463 7.929-1.589 2.381-3.694 4.277-6.316 5.688-2.621 1.384-5.52 2.076-8.699 2.076-3.283 0-6.143-.581-8.58-1.744-2.436-1.19-4.461-2.823-6.077-4.899-1.615-2.076-2.833-4.47-3.654-7.182-.795-2.713-1.192-5.619-1.192-8.719v-1.453c0-3.1.397-6.006 1.192-8.718.82-2.74 2.039-5.148 3.654-7.224 1.616-2.076 3.641-3.695 6.078-4.858 2.436-1.19 5.282-1.785 8.54-1.785 3.442 0 6.461.72 9.056 2.159a15.543 15.543 0 0 1 6.117 5.937c1.51 2.519 2.29 5.452 2.344 8.801h-9.017c-.08-1.66-.477-3.155-1.192-4.483a8.086 8.086 0 0 0-2.939-3.239c-1.245-.802-2.74-1.204-4.488-1.204-1.934 0-3.536.416-4.807 1.246-1.27.802-2.264 1.91-2.979 3.321-.715 1.384-1.231 2.948-1.549 4.692a31.961 31.961 0 0 0-.437 5.355v1.453c0 1.855.146 3.654.437 5.397.291 1.744.794 3.308 1.51 4.692a9.025 9.025 0 0 0 3.018 3.28c1.271.802 2.887 1.204 4.846 1.204Zm23.457-14.822v-.955c0-3.238.45-6.241 1.35-9.009.9-2.795 2.198-5.217 3.893-7.265a17.635 17.635 0 0 1 6.276-4.816c2.489-1.163 5.296-1.744 8.421-1.744 3.151 0 5.958.581 8.421 1.744a17.558 17.558 0 0 1 6.316 4.816c1.721 2.048 3.032 4.47 3.932 7.265.9 2.768 1.351 5.771 1.351 9.01v.954c0 3.239-.451 6.242-1.351 9.01-.9 2.767-2.211 5.189-3.932 7.265a18.315 18.315 0 0 1-6.276 4.816c-2.463 1.135-5.257 1.702-8.382 1.702-3.151 0-5.971-.567-8.46-1.702-2.463-1.163-4.555-2.768-6.276-4.816-1.721-2.076-3.032-4.498-3.933-7.266-.9-2.767-1.35-5.77-1.35-9.009Zm9.573-.955v.955c0 2.02.198 3.93.596 5.73.397 1.799 1.019 3.376 1.866 4.733.848 1.356 1.934 2.421 3.258 3.196 1.324.775 2.899 1.163 4.726 1.163 1.775 0 3.311-.388 4.608-1.163 1.324-.775 2.41-1.84 3.257-3.197.848-1.356 1.47-2.933 1.867-4.732.424-1.8.636-3.71.636-5.73v-.955c0-1.992-.212-3.875-.636-5.646-.397-1.799-1.033-3.39-1.906-4.774-.848-1.384-1.934-2.464-3.258-3.239-1.297-.802-2.846-1.204-4.647-1.204-1.801 0-3.363.402-4.687 1.204-1.298.775-2.37 1.855-3.218 3.239-.847 1.384-1.469 2.975-1.866 4.774-.398 1.771-.596 3.654-.596 5.646Zm126.893-9.853c0-15.548-9.135-28.853-22.093-34.413l-7.565 15.813V35.6c0-.821-.313-1.61-.869-2.191a2.903 2.903 0 0 0-2.097-.908h-17.795c-.787 0-1.541.327-2.097.908a3.17 3.17 0 0 0-.869 2.192v21.7l-7.565-15.814c-12.959 5.56-22.094 18.865-22.094 34.413v12.4h83.044V75.9Zm2.966 18.6h-88.975c-.787 0-1.541.326-2.098.907a3.173 3.173 0 0 0-.868 2.192v6.2c0 .822.312 1.611.868 2.192a2.902 2.902 0 0 0 2.098.908h88.975c.787 0 1.541-.326 2.097-.908.557-.581.869-1.37.869-2.192v-6.2a3.17 3.17 0 0 0-.869-2.192 2.901 2.901 0 0 0-2.097-.907Z" class="color"/>
    <path fill="#fff" d="M35.02 175.312H21.274v-10.061h10.59c2.817 0 5.125-.342 6.923-1.026 1.8-.716 3.14-1.742 4.022-3.077.917-1.368 1.375-3.028 1.375-4.982 0-2.214-.441-4.005-1.324-5.373-.848-1.368-2.189-2.361-4.022-2.979-1.799-.619-4.124-.928-6.975-.928h-10.59v59.637H6v-71.116h25.863c4.31 0 8.163.391 11.557 1.173 3.428.781 6.33 1.97 8.706 3.565 2.376 1.596 4.192 3.615 5.448 6.057 1.256 2.409 1.884 5.275 1.884 8.596 0 2.931-.696 5.633-2.088 8.108-1.357 2.475-3.513 4.494-6.465 6.057-2.92 1.563-7.698 1.208-12.169 1.224l-3.716 5.125Zm-.662 31.211H21.274v-11.429h13.084c2.681 0 4.87-.407 6.568-1.221 1.697-.847 2.953-1.987 3.767-3.419.815-1.433 1.222-3.077 1.222-4.933 0-2.084-.373-3.892-1.12-5.422-.713-1.53-1.867-2.703-3.462-3.517-1.595-.846-3.7-1.27-6.313-1.27l3.716-5.125s11.66-.28 14.409 1.316c2.783 1.563 4.802 3.598 6.058 6.105 1.29 2.507 1.935 5.194 1.935 8.059 0 4.559-1.035 8.401-3.106 11.527-2.07 3.093-5.108 5.422-9.113 6.985-3.971 1.563-8.825 2.344-14.561 2.344Zm70.372-15.213-.122-37.635h14.663v52.848h-13.798l-.4-5.981-.343-9.232Zm0 0 .368 9.721c-1.697 2.182-3.46 3.424-6.04 4.662-2.58 1.205-5.617 1.807-9.113 1.807-2.681 0-5.159-.358-7.433-1.075-2.24-.748-4.175-1.904-5.804-3.467-1.595-1.596-2.851-3.631-3.767-6.106-.883-2.507-1.324-5.519-1.324-9.036v-34.141H86.28v34.239c0 1.563.186 2.882.56 3.956.407 1.075.967 1.954 1.68 2.638a6.184 6.184 0 0 0 2.494 1.465c.985.293 2.07.44 3.259.44 3.02 0 5.396-.587 7.127-1.759 1.765-1.172 2.617-1.325 3.33-3.344Zm41.566-37.635v52.848h-14.713v-52.848h14.713Zm-15.63-13.774c0-2.051.747-3.745 2.24-5.08 1.494-1.335 3.496-2.002 6.008-2.002 2.478 0 4.463.667 5.957 2.002 1.527 1.335 2.291 3.029 2.291 5.08s-.764 3.745-2.291 5.08c-1.494 1.335-3.479 2.002-5.957 2.002-2.512 0-4.514-.667-6.008-2.002-1.493-1.335-2.24-3.029-2.24-5.08Zm43.572-8.401v75.023h-14.714V131.5h14.714Zm44.997 63.496V131.5H234v75.023h-13.288l-1.477-11.527Zm-34.823-14.262v-1.026c0-4.037.475-7.701 1.425-10.989.951-3.322 2.342-6.171 4.175-8.548a18.836 18.836 0 0 1 6.771-5.519c2.682-1.303 5.736-1.954 9.164-1.954 3.225 0 6.042.651 8.452 1.954a17.31 17.31 0 0 1 4.836 3.828v36.516l.76 5.928c-1.697 2.344-3.152 3.32-5.596 4.622-2.444 1.303-5.295 1.954-8.553 1.954-3.428 0-6.483-.668-9.165-2.003-2.647-1.335-4.887-3.207-6.72-5.617-1.799-2.409-3.173-5.242-4.124-8.498-.95-3.256-1.425-6.806-1.425-10.648Zm14.662-1.026v1.026c0 2.182.17 4.217.509 6.105.374 1.889.968 3.566 1.782 5.031.849 1.433 1.935 2.556 3.259 3.37 1.357.782 3.004 1.173 4.938 1.173 2.512 0 4.582-.538 6.211-1.612 1.63-1.107 2.614-2.521 3.462-4.443v-20.25c-.475-1.661-.322-1.487-1.272-2.659a9.368 9.368 0 0 0-3.462-2.736c-1.358-.651-2.97-.976-4.837-.976-1.901 0-3.53.423-4.888 1.269-1.357.814-2.46 1.938-3.309 3.371-.814 1.432-1.425 3.126-1.833 5.079-.373 1.921-.56 4.005-.56 6.252Z" class="text"/>
  </g>
</svg>
